HIERARCHY
ROOT joint_Root
{
	OFFSET 0.0 0.0 0.0
	CHANNELS 6 Xposition Yposition Zposition Zrotation Xrotation Yrotation 
	JOINT Hips
	{
		OFFSET 4.5925 91.4895 -427.239
		CHANNELS 6 Xposition Yposition Zposition Zrotation Xrotation Yrotation 
		JOINT Spine
		{
			OFFSET 15.7357 0.0 0.0
			CHANNELS 6 Xposition Yposition Zposition Zrotation Xrotation Yrotation 
			JOINT Chest
			{
				OFFSET 8.98455 -0.406207 0.0
				CHANNELS 6 Xposition Yposition Zposition Zrotation Xrotation Yrotation 
				JOINT Neck
				{
					OFFSET 16.3773 0.0 0.0
					CHANNELS 6 Xposition Yposition Zposition Zrotation Xrotation Yrotation 
					JOINT Head
					{
						OFFSET 6.45672 0.0 0.0
						CHANNELS 6 Xposition Yposition Zposition Zrotation Xrotation Yrotation 
						End Site
						{
							OFFSET 0.0 0.0 0.0
						}
					}
				}
				JOINT Shoulder_L
				{
					OFFSET 12.9942 -0.242716 4.98039
					CHANNELS 6 Xposition Yposition Zposition Zrotation Xrotation Yrotation 
					JOINT UpperArm_L
					{
						OFFSET 5.34809 0.0 0.0
						CHANNELS 6 Xposition Yposition Zposition Zrotation Xrotation Yrotation 
						JOINT LowerArm_L
						{
							OFFSET 24.3286 1.87007e-05 0.0
							CHANNELS 6 Xposition Yposition Zposition Zrotation Xrotation Yrotation 
							JOINT Hand_L
							{
								OFFSET 22.2916 0.0 0.0
								CHANNELS 6 Xposition Yposition Zposition Zrotation Xrotation Yrotation 
								End Site
								{
									OFFSET 0.0 0.0 0.0
								}
							}
						}
					}
				}
				JOINT Shoulder_R
				{
					OFFSET 12.9945 -0.242716 -4.98039
					CHANNELS 6 Xposition Yposition Zposition Zrotation Xrotation Yrotation 
					JOINT UpperArm_R
					{
						OFFSET -5.34813 0.0 0.0
						CHANNELS 6 Xposition Yposition Zposition Zrotation Xrotation Yrotation 
						JOINT LowerArm_R
						{
							OFFSET -24.3289 0.000322201 0.0
							CHANNELS 6 Xposition Yposition Zposition Zrotation Xrotation Yrotation 
							JOINT Hand_R
							{
								OFFSET -22.2915 -0.000108084 0.0
								CHANNELS 6 Xposition Yposition Zposition Zrotation Xrotation Yrotation 
								End Site
								{
									OFFSET 0.0 0.0 0.0
								}
							}
						}
					}
				}
			}
		}
		JOINT UpperLeg_L
		{
			OFFSET -2.19248 -6.46944 0.0
			CHANNELS 6 Xposition Yposition Zposition Zrotation Xrotation Yrotation 
			JOINT LowerLeg_L
			{
				OFFSET 39.0811 0.0 -1.23785e-05
				CHANNELS 6 Xposition Yposition Zposition Zrotation Xrotation Yrotation 
				JOINT Foot_L
				{
					OFFSET 40.9854 0.0 -1.26872e-05
					CHANNELS 6 Xposition Yposition Zposition Zrotation Xrotation Yrotation 
					JOINT Toes_L
					{
						OFFSET 11.7543 0.0 0.0
						CHANNELS 6 Xposition Yposition Zposition Zrotation Xrotation Yrotation 
						End Site
						{
							OFFSET 0.0 0.0 0.0
						}
					}
				}
			}
		}
		JOINT UpperLeg_R
		{
			OFFSET -2.19251 6.46944 0.0
			CHANNELS 6 Xposition Yposition Zposition Zrotation Xrotation Yrotation 
			JOINT LowerLeg_R
			{
				OFFSET -39.0811 -0.00228153 -0.0401928
				CHANNELS 6 Xposition Yposition Zposition Zrotation Xrotation Yrotation 
				JOINT Foot_R
				{
					OFFSET -40.9854 0.0 0.0
					CHANNELS 6 Xposition Yposition Zposition Zrotation Xrotation Yrotation 
					JOINT Toes_R
					{
						OFFSET -11.7543 0.0 0.0
						CHANNELS 6 Xposition Yposition Zposition Zrotation Xrotation Yrotation 
						End Site
						{
							OFFSET 0.0 0.0 0.0
						}
					}
				}
			}
		}
	}
}
MOTION
Frames:	9
Frame Time:	0.0333333
0.000000 0.000000 0.000000 0.000000 0.000000 -0.000000 0.077666 90.445300 1.443820 89.335000 -4.972650 12.681600 15.735700 0.000005 -0.000001 95.263800 82.659200 -97.446700 8.984550 -0.406207 -0.000000 6.884850 1.359140 -4.443000 16.377300 -0.000001 -0.000001 31.066300 0.714573 1.428570 6.456720 -0.000001 -0.000000 16.798700 0.173865 -9.259920 12.994200 -0.242716 4.980390 -91.507100 4.710530 -72.235800 5.348090 -0.000007 -0.000001 -61.732500 35.562200 -12.254600 24.328600 0.000019 0.000005 7.393850 23.983300 -17.705900 22.291600 -0.000001 0.000005 8.935930 5.312400 -0.278031 12.994500 -0.242716 -4.980390 90.141400 -0.544570 -75.445900 -5.348130 -0.000001 -0.000004 -54.268300 -41.735700 -71.805600 -24.328900 0.000322 -0.000009 4.708120 1.529690 -72.046800 -22.291500 -0.000108 -0.000004 30.387000 5.460890 -5.033730 -2.192480 -6.469440 -0.000000 -173.325000 -14.961000 3.874650 39.081100 -0.000007 -0.000012 -0.179542 0.290395 31.727500 40.985400 -0.000006 -0.000013 0.771460 5.727640 -72.350400 11.754300 -0.000000 0.000003 -0.000138 -0.001353 -16.629100 -2.192510 6.469440 -0.000001 171.523000 21.235800 -174.288000 -39.081100 -0.002282 -0.040193 -0.233171 0.401646 30.488100 -40.985400 0.000008 0.000006 3.175340 15.362900 -72.449200 -11.754300 -0.000006 -0.000006 -0.001467 -0.021827 -17.460700
0.000000 0.000000 0.000000 0.000000 0.000000 -0.000000 0.111848 90.446900 1.451020 89.334500 -4.923830 12.631900 15.735700 0.000005 -0.000001 95.219000 82.757300 -97.377500 8.984550 -0.406207 -0.000000 6.689460 1.333660 -4.390290 16.377300 -0.000001 -0.000001 30.913500 0.662556 1.376880 6.456720 -0.000001 -0.000000 16.753900 0.181165 -9.329880 12.994200 -0.242716 4.980390 -91.486800 4.665650 -72.302600 5.348090 -0.000007 -0.000001 -61.757300 35.537700 -12.418700 24.328600 0.000019 0.000005 7.428950 23.860300 -17.866300 22.291600 -0.000001 0.000005 8.959610 5.311060 -0.240159 12.994500 -0.242716 -4.980390 90.155700 -0.602116 -75.499800 -5.348130 -0.000001 -0.000004 -54.082500 -41.665200 -71.631900 -24.328900 0.000322 -0.000009 4.705330 1.524770 -72.090800 -22.291500 -0.000108 -0.000004 30.617900 5.464320 -5.159660 -2.192480 -6.469440 -0.000000 -173.370000 -14.961100 3.828420 39.081100 -0.000007 -0.000012 -0.175498 0.283923 31.721300 40.985400 -0.000006 -0.000013 0.812143 5.758000 -72.360100 11.754300 -0.000000 0.000003 -0.000135 -0.001326 -16.628100 -2.192510 6.469440 -0.000001 171.507000 21.278100 -174.316000 -39.081100 -0.002282 -0.040193 -0.229894 0.396363 30.470200 -40.985400 0.000008 0.000006 3.146720 15.364900 -72.439700 -11.754300 -0.000006 -0.000006 -0.001506 -0.022348 -17.481900
0.000000 0.000000 0.000000 0.000000 0.000000 -0.000000 0.162763 90.454300 1.482510 89.341100 -4.880630 12.583700 15.735700 0.000005 -0.000001 95.380300 82.862700 -97.513800 8.984550 -0.406207 -0.000000 6.476090 1.358390 -4.339330 16.377300 -0.000001 -0.000001 30.694000 0.636112 1.405330 6.456720 -0.000001 -0.000000 16.791400 0.178263 -9.452550 12.994200 -0.242716 4.980390 -91.453800 4.593900 -72.418500 5.348090 -0.000007 -0.000001 -61.894800 35.543600 -12.575600 24.328600 0.000019 0.000005 7.496170 23.815400 -18.049200 22.291600 -0.000001 0.000005 9.099790 5.315770 -0.374368 12.994500 -0.242716 -4.980390 90.174100 -0.676589 -75.567600 -5.348130 -0.000001 -0.000004 -53.947400 -41.677300 -71.403600 -24.328900 0.000322 -0.000009 4.760770 1.528470 -72.246900 -22.291500 -0.000108 -0.000004 30.728700 5.464140 -5.153120 -2.192480 -6.469440 -0.000000 -173.417000 -14.977900 3.816550 39.081100 -0.000007 -0.000012 -0.174720 0.283199 31.672800 40.985400 -0.000006 -0.000013 0.861857 5.805810 -72.360300 11.754300 -0.000000 0.000003 -0.000138 -0.001355 -16.629200 -2.192510 6.469440 -0.000001 171.495000 21.245900 -174.324000 -39.081100 -0.002282 -0.040193 -0.229467 0.396532 30.413700 -40.985400 0.000008 0.000006 3.076340 15.292800 -72.410600 -11.754300 -0.000006 -0.000006 -0.001502 -0.022297 -17.479800
0.000000 0.000000 0.000000 0.000000 0.000000 -0.000000 0.205727 90.451800 1.511490 89.346600 -4.797280 12.502500 15.735700 0.000005 -0.000001 95.446900 82.970600 -97.551500 8.984550 -0.406207 -0.000000 6.259080 1.358300 -4.279060 16.377300 -0.000001 -0.000001 30.472300 0.625982 1.375670 6.456720 -0.000001 -0.000000 16.749000 0.207348 -9.538340 12.994200 -0.242716 4.980390 -91.424600 4.530680 -72.525300 5.348090 -0.000007 -0.000001 -62.026100 35.632600 -12.795500 24.328600 0.000019 0.000005 7.583690 23.692200 -18.331800 22.291600 -0.000001 0.000005 9.255680 5.317710 -0.429994 12.994500 -0.242716 -4.980390 90.197500 -0.769841 -75.610500 -5.348130 -0.000001 -0.000004 -53.949400 -41.694700 -71.360300 -24.328900 0.000322 -0.000009 4.770210 1.526300 -72.303500 -22.291500 -0.000108 -0.000004 30.710600 5.463470 -5.128410 -2.192480 -6.469440 -0.000000 -173.494000 -14.891700 3.727130 39.081100 -0.000007 -0.000012 -0.176614 0.286184 31.680400 40.985400 -0.000006 -0.000013 0.886150 5.793720 -72.380100 11.754300 -0.000000 0.000003 -0.000141 -0.001382 -16.630200 -2.192510 6.469440 -0.000001 171.482000 21.243500 -174.381000 -39.081100 -0.002282 -0.040193 -0.234974 0.406049 30.405300 -40.985400 0.000008 0.000006 3.015800 15.233600 -72.412000 -11.754300 -0.000006 -0.000006 -0.001651 -0.024262 -17.559700
0.000000 0.000000 0.000000 0.000000 0.000000 -0.000000 0.256114 90.448000 1.547720 89.387900 -4.675920 12.481000 15.735700 0.000005 -0.000001 95.371500 83.073200 -97.462200 8.984550 -0.406207 -0.000000 6.055640 1.324510 -4.246930 16.377300 -0.000001 -0.000001 30.321000 0.620043 1.354430 6.456720 -0.000001 -0.000000 16.667700 0.268914 -9.651380 12.994200 -0.242716 4.980390 -91.395600 4.461240 -72.609800 5.348090 -0.000007 -0.000001 -62.177200 35.803000 -12.968200 24.328600 0.000019 0.000005 7.672050 23.423300 -18.719900 22.291600 -0.000001 0.000005 9.414030 5.317460 -0.422599 12.994500 -0.242716 -4.980390 90.228300 -0.894589 -75.685000 -5.348130 -0.000001 -0.000004 -54.029100 -41.702600 -71.345500 -24.328900 0.000322 -0.000009 4.785260 1.526690 -72.351700 -22.291500 -0.000108 -0.000004 30.699100 5.464510 -5.166720 -2.192480 -6.469440 -0.000000 -173.606000 -14.830200 3.714900 39.081100 -0.000007 -0.000012 -0.171567 0.278142 31.667900 40.985400 -0.000006 -0.000013 0.929541 5.787970 -72.401300 11.754300 -0.000000 0.000003 -0.000140 -0.001373 -16.629800 -2.192510 6.469440 -0.000001 171.394000 21.257700 -174.370000 -39.081100 -0.002282 -0.040193 -0.236327 0.408231 30.412900 -40.985400 0.000008 0.000006 2.953250 15.186400 -72.431200 -11.754300 -0.000006 -0.000006 -0.001692 -0.024793 -17.581200
0.000000 0.000000 0.000000 0.000000 0.000000 -0.000000 0.299727 90.445000 1.610820 89.406200 -4.597760 12.461000 15.735700 0.000005 -0.000001 95.438500 83.161500 -97.512200 8.984550 -0.406207 -0.000000 5.878010 1.327010 -4.210940 16.377300 -0.000001 -0.000001 30.119700 0.620273 1.374220 6.456720 -0.000001 -0.000000 16.636900 0.310898 -9.786820 12.994200 -0.242716 4.980390 -91.369400 4.403470 -72.706500 5.348090 -0.000007 -0.000001 -62.310300 35.941800 -13.161100 24.328600 0.000019 0.000005 7.781820 23.187400 -19.140800 22.291600 -0.000001 0.000005 9.509820 5.321000 -0.524490 12.994500 -0.242716 -4.980390 90.252800 -0.994898 -75.740300 -5.348130 -0.000001 -0.000004 -54.149500 -41.743600 -71.414600 -24.328900 0.000322 -0.000009 4.735470 1.508470 -72.376500 -22.291500 -0.000108 -0.000004 30.658000 5.460590 -5.022700 -2.192480 -6.469440 -0.000000 -173.651000 -14.809200 3.739440 39.081100 -0.000007 -0.000012 -0.174952 0.283885 31.644800 40.985400 -0.000006 -0.000013 0.968113 5.830660 -72.435000 11.754300 -0.000000 0.000003 -0.000132 -0.001304 -16.627300 -2.192510 6.469440 -0.000001 171.331000 21.299200 -174.328000 -39.081100 -0.002282 -0.040193 -0.232565 0.402095 30.395900 -40.985400 0.000008 0.000006 2.901440 15.147600 -72.452000 -11.754300 -0.000006 -0.000006 -0.001646 -0.024198 -17.557000
0.000000 0.000000 0.000000 0.000000 0.000000 -0.000000 0.346924 90.443200 1.670610 89.406300 -4.495250 12.402400 15.735700 0.000005 -0.000001 95.438800 83.263500 -97.490800 8.984550 -0.406207 -0.000000 5.674240 1.311260 -4.164450 16.377300 -0.000001 -0.000001 29.920800 0.585675 1.385930 6.456720 -0.000001 -0.000000 16.604500 0.306240 -9.924130 12.994200 -0.242716 4.980390 -91.349300 4.369940 -72.822900 5.348090 -0.000007 -0.000001 -62.431100 36.094300 -13.288400 24.328600 0.000019 0.000005 7.856440 22.785200 -19.610900 22.291600 -0.000001 0.000005 9.513850 5.321620 -0.542500 12.994500 -0.242716 -4.980390 90.279700 -1.103100 -75.769300 -5.348130 -0.000001 -0.000004 -54.289700 -41.763400 -71.528400 -24.328900 0.000322 -0.000009 4.779900 1.526100 -72.339500 -22.291500 -0.000108 -0.000004 30.658700 5.459870 -4.996220 -2.192480 -6.469440 -0.000000 -173.714000 -14.740000 3.708650 39.081100 -0.000007 -0.000012 -0.171066 0.277713 31.632600 40.985400 -0.000006 -0.000013 1.002160 5.842000 -72.469400 11.754300 -0.000000 0.000003 -0.000134 -0.001321 -16.627900 -2.192510 6.469440 -0.000001 171.289000 21.318700 -174.308000 -39.081100 -0.002282 -0.040193 -0.236068 0.408783 30.352100 -40.985400 0.000008 0.000006 2.835510 15.115200 -72.462200 -11.754300 -0.000006 -0.000006 -0.001597 -0.023548 -17.530600
0.000000 0.000000 0.000000 0.000000 0.000000 -0.000000 0.382280 90.438800 1.731240 89.412200 -4.321400 12.412200 15.735700 0.000005 -0.000001 95.261800 83.339300 -97.313000 8.984550 -0.406207 -0.000000 5.526140 1.258820 -4.158690 16.377300 -0.000001 -0.000001 29.707900 0.538267 1.426750 6.456720 -0.000001 -0.000000 16.628300 0.308206 -9.990820 12.994200 -0.242716 4.980390 -91.315600 4.303880 -72.984500 5.348090 -0.000007 -0.000001 -62.582300 36.219900 -13.397600 24.328600 0.000019 0.000005 7.992740 22.701100 -19.992900 22.291600 -0.000001 0.000005 9.632340 5.324090 -0.613407 12.994500 -0.242716 -4.980390 90.301100 -1.193010 -75.834400 -5.348130 -0.000001 -0.000004 -54.390100 -41.838300 -71.514900 -24.328900 0.000322 -0.000009 4.769900 1.520800 -72.362300 -22.291500 -0.000108 -0.000004 30.571200 5.460940 -5.035420 -2.192480 -6.469440 -0.000000 -173.774000 -14.582200 3.729010 39.081100 -0.000007 -0.000012 -0.172821 0.280579 31.631100 40.985400 -0.000006 -0.000013 1.037880 5.874720 -72.503300 11.754300 -0.000000 0.000003 -0.000133 -0.001312 -16.627600 -2.192510 6.469440 -0.000001 171.185000 21.482200 -174.199000 -39.081100 -0.002282 -0.040193 -0.234734 0.406936 30.325600 -40.985400 0.000008 0.000006 2.793890 15.111000 -72.488600 -11.754300 -0.000006 -0.000006 -0.001603 -0.023629 -17.533900
0.000000 0.000000 0.000000 0.000000 0.000000 -0.000000 0.415257 90.432800 1.801580 89.428900 -4.183410 12.412900 15.735700 0.000005 -0.000001 95.134900 83.414100 -97.180900 8.984550 -0.406207 -0.000000 5.379000 1.218800 -4.144710 16.377300 -0.000001 -0.000001 29.595200 0.504735 1.416350 6.456720 -0.000001 -0.000000 16.522500 0.321591 -10.084200 12.994200 -0.242716 4.980390 -91.288300 4.244660 -73.099500 5.348090 -0.000007 -0.000001 -62.768500 36.357600 -13.450200 24.328600 0.000019 0.000005 8.138990 22.681300 -20.349000 22.291600 -0.000001 0.000005 9.699120 5.323800 -0.605288 12.994500 -0.242716 -4.980390 90.331100 -1.315710 -75.874000 -5.348130 -0.000001 -0.000004 -54.409700 -41.922300 -71.521900 -24.328900 0.000322 -0.000009 4.797440 1.530900 -72.348400 -22.291500 -0.000108 -0.000004 30.671100 5.462690 -5.099670 -2.192480 -6.469440 -0.000000 -173.817000 -14.549500 3.771890 39.081100 -0.000007 -0.000012 -0.169796 0.275789 31.619800 40.985400 -0.000006 -0.000013 1.073480 5.911240 -72.547200 11.754300 -0.000000 0.000003 -0.000133 -0.001315 -16.627700 -2.192510 6.469440 -0.000001 171.095000 21.535800 -174.105000 -39.081100 -0.002282 -0.040193 -0.237018 0.411251 30.300700 -40.985400 0.000008 0.000006 2.739740 15.083800 -72.525000 -11.754300 -0.000006 -0.000006 -0.001641 -0.024130 -17.554300
